<?xml version="1.0" encoding="utf-8"?>
<!-- Generator: Adobe Illustrator 17.1.0, SVG Export Plug-In . SVG Version: 6.00 Build 0)  -->
<!DOCTYPE svg PUBLIC "-//W3C//DTD SVG 1.1//EN" "http://www.w3.org/Graphics/SVG/1.1/DTD/svg11.dtd">
<svg version="1.1" id="Layer_1" xmlns="http://www.w3.org/2000/svg" xmlns:xlink="http://www.w3.org/1999/xlink" x="0px" y="0px"
	 viewBox="0 0 456.4 195.1" enable-background="new 0 0 456.4 195.1" xml:space="preserve">
<g>
	<path fill-rule="evenodd" clip-rule="evenodd" fill="#FFD617" d="M323.5,130.3c-1,0-1.9,0-2.9,0c0.2-2.2,0.4-4.5,0.6-6.7
		c0.5,0,1,0,1.5,0c1.1,0,2.2,0.1,3,1c0.6,0.6,0.6,1.6,0.5,2.4c-0.1,0.6-0.1,1.4-0.8,2.3c-0.3,0.4-0.6,0.6-1.1,0.8
		C324.1,130.2,323.8,130.3,323.5,130.3C323.5,130.3,323.5,130.3,323.5,130.3L323.5,130.3z M403.8,84.6C396.8,71.5,389,59.4,380,48.1
		l2.3-5.2c11.4,14.1,18.9,26,28.2,43.4l-34,19.2l-2.1-2.7L403.8,84.6L403.8,84.6z M382.3,68.6l-1.6-1.4l1.3-1.4l3.5,2.4l0.6,1.1
		l-8.9,4.9l-1.2-2.2L382.3,68.6L382.3,68.6z M381.2,77.8c0.3,0.6,1.9-0.2,3.5-1.1c1.6-0.9,2.7-1.6,2.4-2.2c-0.3-0.6-1.6,0-3.1,0.9
		C382.4,76.3,380.8,77.2,381.2,77.8L381.2,77.8z M379.5,78.7c-1.2-2.1,0.3-3.8,3.3-5.4c2.8-1.5,4.9-1.7,6,0.3
		c1.1,1.9-0.1,3.6-2.9,5.2C382.9,80.4,380.7,80.8,379.5,78.7L379.5,78.7z M384.5,83.8c0.3,0.6,1.9-0.2,3.5-1.1
		c1.6-0.9,2.7-1.6,2.4-2.2c-0.3-0.6-1.6,0-3.1,0.9C385.7,82.3,384.2,83.2,384.5,83.8L384.5,83.8z M382.8,84.7
		c-1.2-2.1,0.3-3.8,3.3-5.4c2.8-1.5,4.9-1.7,6,0.3c1.1,1.9-0.1,3.6-2.9,5.2C386.2,86.4,384,86.8,382.8,84.7L382.8,84.7z M272.2,48.6
		l1.7-17.5c3,10.5,6.4,22,9.1,31.5c-11.6-0.9-24.8-1.9-37.2-2.9l18.8-4.6c-43.1-37.7-90.8-7.9-72.6,44.3
		C160.8,57.1,215.7,1.7,272.2,48.6L272.2,48.6z M248.6,52.1l-7.6,3.3c-35.8-14.4-53.1,24.7-33.1,52.7
		C178.4,78.9,200.5,27.8,248.6,52.1L248.6,52.1z M320.2,135c1,0,1.9,0,2.9,0c0,0,0,0,0,0c0.8,0,1.5,0.4,2,0.8
		c0.6,0.6,0.8,1.6,0.7,2.5c-0.1,1.2-0.5,2.1-1.3,2.7c-0.7,0.5-1.6,0.8-2.5,0.8c-0.8,0-1.6,0-2.4,0C319.8,139.5,320,137.3,320.2,135
		L320.2,135z M446,144.9c-2.6,2.7-5.3,3.2-7.2,3.2c-2.3,0-4.7-0.6-6.4-2.1c-1.6-1.4-2.7-3.7-2.4-7c0.3-3,1.8-5.4,4.5-7.1
		c1.7-1.1,3.5-1.7,5.4-2.1c1-0.2,2-0.4,3.2-0.6c1.2-0.2,2.4-0.4,3.6-0.5c0-0.1,0-0.2,0-0.3c0.1-0.9,0.2-2.1-0.2-3.2
		c-0.6-1.4-1.7-1.9-3.8-1.9c-3.2,0-6,1.4-7.9,2.8c-0.6-2.1-1.1-4.2-1.7-6.3c4.5-2.4,8.2-3.1,12.2-3.1c1.9,0,6.6,0.2,9.1,2.8
		c1.1,1.2,2.3,3.4,1.9,7.8c-0.4,4.1-0.7,8.2-1.1,12.2c-0.3,2.9-0.1,5.9,0.2,8.2c-3,0-6,0-9,0C446.3,146.7,446.2,145.8,446,144.9
		L446,144.9z M444.5,134.3c-0.9,0.2-2.9,0.6-3.9,1.7c-0.5,0.6-0.8,1.4-0.9,2.2c-0.2,2.3,1.4,3.2,3.3,3.2c0.2,0,0.5-0.1,1-0.1
		c0.7-0.2,1.3-0.5,1.9-0.9c0.2-2.1,0.4-4.3,0.6-6.4C445.7,134,445.1,134.2,444.5,134.3L444.5,134.3z M411.2,134.9
		c-0.4,4.2-0.7,8.5-1.1,12.7c-3.1,0-6.3,0-9.4,0c0.9-10,1.8-19.9,2.6-29.9c3.1,0,6.3,0,9.4,0c-0.3,3.6-0.6,7.2-1,10.9
		c0.3,0,0.6,0,0.9,0c2.5-3.6,5-7.2,7.5-10.9c3.1,0,6.2,0,9.3,0c-3.1,4.4-6.2,8.8-9.4,13.2c2.6,5.6,5.2,11.1,7.7,16.7
		c-3.3,0-6.6,0-9.9,0c-1.9-4.2-3.9-8.5-5.8-12.7C411.8,134.9,411.5,134.9,411.2,134.9L411.2,134.9z M381.4,117.7
		c-0.3,3-0.5,5.9-0.8,8.9c-0.1,1.1,0,2.2,0.5,2.9c0.6,0.9,1.3,1.1,2.2,1.1c2.1,0,3.7-1.1,4.1-1.3c0.3-3.9,0.7-7.8,1-11.6
		c3.1,0,6.3,0,9.4,0c-0.9,10-1.8,19.9-2.6,29.9c-3.1,0-6.3,0-9.4,0c0.4-4.2,0.7-8.3,1.1-12.5c-3.2,1.5-5.7,1.9-7.8,1.9
		c-1.2,0-2.5-0.1-3.6-0.6c-1-0.4-1.9-1-2.7-1.9c-2-2.3-2-4.9-1.8-7.1c0.3-3.2,0.6-6.5,0.9-9.7C375.1,117.7,378.2,117.7,381.4,117.7
		L381.4,117.7z M338.4,131.6c0.2-2.7,1.1-7.6,5.2-11.3c2-1.7,5.3-3.7,10.5-3.7c5.2,0,8.2,2.1,9.9,3.7c3.4,3.6,3.5,8.7,3.2,11.3
		c-0.4,4.7-2,8.7-4.4,11.5c-1.4,1.6-3.1,2.9-5.1,3.8c-2,0.9-4.2,1.2-6.4,1.2c-5.4,0-8.6-2.2-10.5-5
		C338.9,140.3,338,136.3,338.4,131.6L338.4,131.6z M348.3,131.8c-0.2,2.4-0.1,4.8,0.4,6.7c0.2,0.9,0.6,1.7,1.2,2.3
		c0.6,0.5,1.2,0.9,2.1,0.9c0.8,0,2.7-0.4,3.9-3.2c0.4-1,0.8-2,1-3.1c0.3-1.2,0.4-2.4,0.5-3.5c0.2-1.9,0.2-4.2-0.4-6
		c-0.8-2.4-2.3-2.9-3.3-2.9c-0.7,0-1.4,0.3-2.1,0.8c-0.7,0.5-1.2,1.2-1.7,2.1C348.8,127.6,348.5,129.8,348.3,131.8L348.3,131.8z
		 M326,117.7c2.5,0,5.1,0.2,7.1,1.7c0.9,0.7,1.7,1.6,2.2,2.7c0.4,1,0.6,2.1,0.5,3.3c-0.2,2.3-1.2,4.1-3.4,5.6
		c-0.6,0.4-1.3,0.7-2.1,1.1c1.4,0.3,2.7,1.1,3.5,1.9c0.5,0.5,0.9,1.2,1.1,1.9c0.3,0.9,0.4,2,0.3,3c-0.1,1.4-0.5,2.7-1.2,3.9
		c-0.6,1.1-1.4,2.1-2.4,2.8c-2.5,1.8-5.8,2.1-7.7,2.1c-4.7,0-9.5,0-14.2,0c0.9-10,1.7-20,2.6-29.9
		C316.9,117.7,321.4,117.7,326,117.7L326,117.7z M306.9,117.7c-0.9,10-1.8,19.9-2.6,29.9c-3.1,0-6.3,0-9.4,0
		c0.9-10,1.8-19.9,2.6-29.9C300.6,117.7,303.7,117.7,306.9,117.7L306.9,117.7z M302.8,113c-3.1,0-4.8-1.5-4.6-4.3
		c0.2-2.8,2.2-4.3,5.3-4.3c3.1,0,4.8,1.5,4.6,4.3C307.8,111.5,305.9,113,302.8,113L302.8,113z M269,124.4c0.2-2.2,0.4-4.5,0.6-6.7
		c8.4,0,16.7,0,25.1,0c-0.6,2.2-1.3,4.5-1.9,6.7c-2.3,0-4.6,0-6.8,0c-0.7,7.7-1.4,15.5-2.1,23.2c-3.1,0-6.3,0-9.4,0
		c0.7-7.7,1.4-15.5,2.1-23.2C274.1,124.4,271.6,124.4,269,124.4L269,124.4z M237.9,131.6c0.2-2.7,1.1-7.6,5.2-11.3
		c2-1.7,5.3-3.7,10.5-3.7c5.2,0,8.2,2.1,9.9,3.7c3.4,3.6,3.5,8.7,3.2,11.3c-0.4,4.7-2,8.7-4.4,11.5c-1.4,1.6-3.1,2.9-5.1,3.8
		c-2,0.9-4.2,1.2-6.4,1.2c-5.4,0-8.6-2.2-10.5-5C238.4,140.3,237.5,136.3,237.9,131.6L237.9,131.6z M247.8,131.8
		c-0.2,2.4-0.1,4.8,0.4,6.7c0.2,0.9,0.6,1.7,1.2,2.3c0.6,0.5,1.2,0.9,2.1,0.9c0.8,0,2.7-0.4,3.9-3.2c0.4-1,0.8-2,1-3.1
		c0.3-1.2,0.4-2.4,0.5-3.5c0.2-1.9,0.2-4.2-0.4-6c-0.8-2.4-2.3-2.9-3.3-2.9c-0.7,0-1.4,0.3-2.1,0.8c-0.7,0.5-1.2,1.2-1.7,2.1
		C248.3,127.6,247.9,129.8,247.8,131.8L247.8,131.8z M239.2,107.5c-0.8,2.6-1.7,5.3-2.5,7.9c-3.2,0-6.4,0-9.6,0
		c-1,10.7-1.9,21.5-2.9,32.2c-3.5,0-6.9,0-10.4,0c1.2-13.4,2.4-26.8,3.5-40.1C224.7,107.5,231.9,107.5,239.2,107.5L239.2,107.5z"/>
	<path fill-rule="evenodd" clip-rule="evenodd" fill="#FFFFFF" d="M250.9,68.1L236.7,79c-5.9,4.5-7.1,14-1.7,18.4
		c3.4,2.7,7.8,1.3,11.1-0.8l62.7-40c8.9-5.7,18.4-7,25.6,2.5l37.5,49.4l-6.8,0.2l-34.9-46.3c-5.4-7.1-12.1-5.3-18.6-1.1l-62.7,40
		c-5.3,3.4-12,4.7-17.3,0.4c-3.8-3.1-5.5-8.1-5.2-12.9c0.4-5.5,4-9.9,8.7-12.8l14.1-8.7L250.9,68.1L250.9,68.1z M13.6,107.5
		c-1,10.7-1.9,21.5-2.9,32.2c2.2,0,4.4,0,6.6,0c1-10.7,1.9-21.5,2.9-32.2c3.3,0,6.7,0,10,0c-1,10.7-1.9,21.5-2.9,32.2
		c2.2,0,4.4,0,6.6,0c1-10.7,1.9-21.5,2.9-32.2c3.3,0,6.7,0,10,0c-1.2,13.4-2.4,26.8-3.5,40.1c-14.4,0-28.8,0-43.3,0
		c1.2-13.4,2.4-26.8,3.5-40.1C6.9,107.5,10.2,107.5,13.6,107.5L13.6,107.5z M62.6,130.3c-0.8,0-1.6,0-2.4,0c0.2-2.2,0.4-4.5,0.6-6.7
		c0.5,0,1,0,1.5,0c1.1,0,2.2,0.1,3,1c0.6,0.6,0.6,1.6,0.5,2.4c-0.1,0.6-0.1,1.4-0.8,2.3c-0.3,0.4-0.6,0.6-1.1,0.8
		c-0.4,0.1-0.7,0.2-1.1,0.2C62.8,130.3,62.7,130.3,62.6,130.3C62.6,130.3,62.6,130.3,62.6,130.3L62.6,130.3z M59.8,135.1
		c0.9,0,1.8,0,2.8,0c0,0,0,0,0,0c0,0,0.1,0,0.1,0c0.8,0,1.6,0.4,2,0.8c0.6,0.6,0.8,1.6,0.7,2.5c-0.1,1.2-0.5,2.1-1.3,2.7
		c-0.7,0.5-1.6,0.8-2.5,0.8c-0.8,0-1.6,0-2.4,0C59.4,139.5,59.6,137.3,59.8,135.1L59.8,135.1z M188.2,144.9
		c-2.6,2.7-5.3,3.2-7.2,3.2c-2.3,0-4.7-0.6-6.4-2.1c-1.6-1.4-2.7-3.7-2.4-7c0.3-3,1.8-5.4,4.5-7.1c1.7-1.1,3.5-1.7,5.4-2.1
		c1-0.2,2-0.4,3.2-0.6c1.2-0.2,2.4-0.4,3.6-0.5c0-0.1,0-0.2,0-0.3c0.1-0.9,0.2-2.1-0.2-3.2c-0.6-1.4-1.7-1.9-3.8-1.9
		c-3.2,0-6,1.4-7.9,2.8c-0.6-2.1-1.1-4.2-1.7-6.3c4.5-2.4,8.2-3.1,12.2-3.1c1.9,0,6.6,0.2,9.1,2.8c1.1,1.2,2.3,3.4,1.9,7.8
		c-0.4,4.6-0.8,9.2-1.2,13.7c-0.2,2,0,5,0.3,6.7c-3,0-6,0-9,0C188.5,146.7,188.4,145.8,188.2,144.9L188.2,144.9z M186.7,134.3
		c-0.9,0.2-2.9,0.6-3.9,1.7c-0.5,0.6-0.8,1.4-0.9,2.2c-0.2,2.3,1.4,3.2,3.3,3.2c0.2,0,0.5-0.1,1-0.1c0.7-0.2,1.3-0.5,1.9-0.9
		c0.2-2.1,0.4-4.3,0.6-6.4C187.9,134,187.3,134.2,186.7,134.3L186.7,134.3z M153.4,134.9c-0.4,4.3-0.8,8.5-1.1,12.8
		c-3.1,0-6.3,0-9.4,0c0.9-10,1.8-20,2.6-29.9c0.3,0,0.7-0.1,1-0.1c2.8,0,5.6,0,8.5,0c-0.3,3.7-0.6,7.3-1,11c0.3,0,0.6,0,0.9,0
		c2.5-3.7,5-7.3,7.6-11c3.1,0,6.3,0,9.4,0c-3.2,4.4-6.4,8.9-9.6,13.3c2.6,5.6,5.2,11.2,7.8,16.8c-3.3,0-6.6,0-9.9,0
		c-1.9-4.3-3.9-8.5-5.8-12.8C154,134.9,153.7,134.9,153.4,134.9L153.4,134.9z M127.1,140.9c0.5-5.5,1-11,1.5-16.5
		c-1.2,0-2.4,0-3.7,0c-0.7,5.4-1.7,8.7-2.7,11.5c-0.7,1.9-1.2,3.2-2.2,5C122.4,140.9,124.7,140.9,127.1,140.9L127.1,140.9z
		 M138.6,117.7c-0.7,7.7-1.4,15.5-2.1,23.2c1.4,0,2.8,0,4.2,0c-0.4,4.7-0.8,9.3-1.2,14c0,0-0.1,0-0.1,0c-2.8,0-5.5,0-8.3,0
		c0.2-2.4,0.4-4.9,0.6-7.3c-5.3,0-10.6,0-15.9,0c-0.2,2.4-0.4,4.9-0.6,7.3c0,0-0.1,0-0.1,0c-2.8,0-5.5,0-8.3,0
		c0.4-4.7,0.8-9.4,1.2-14c0.8,0,1.6,0,2.5,0c1.3-2,2.4-4.2,3.2-6.5c1.8-4.9,2.9-11.3,3.4-16.7C124.3,117.7,131.4,117.7,138.6,117.7
		L138.6,117.7z M80.7,117.6c0.3,0,0.6,0,1,0c2.8,0,5.6,0,8.5,0c-0.5,5.7-1,11.4-1.5,17.1c3.4-5.7,6.8-11.3,10.2-17
		c2.9,0,5.7,0,8.6,0c-0.9,10-1.8,20-2.6,29.9c-3.1,0-6.3,0-9.4,0c0.5-5.7,1-11.3,1.5-17c-3.4,5.7-6.8,11.3-10.2,17
		c-2.9,0-5.7,0-8.6,0C78.9,137.6,79.8,127.6,80.7,117.6L80.7,117.6z M51.9,117.7c4.6,0,9.2,0,13.7,0c2.5,0,5.1,0.2,7.1,1.7
		c0.9,0.7,1.7,1.6,2.2,2.7c0.4,1,0.6,2.1,0.5,3.3c-0.2,2.3-1.2,4.1-3.4,5.6c-0.6,0.4-1.3,0.7-2.1,1.1c1.4,0.3,2.7,1.1,3.5,1.9
		c0.5,0.5,0.9,1.2,1.1,1.9c0.3,0.9,0.4,2,0.3,3c-0.1,1.4-0.5,2.7-1.2,3.9c-0.6,1.1-1.4,2.1-2.4,2.8c-2.5,1.8-5.8,2.1-7.7,2.1
		c-4.7,0-9.5,0-14.2,0C50.1,137.7,51,127.7,51.9,117.7L51.9,117.7z M332.8,155.4l-13.7,8.4l-2.2-3.3l8.3-5.1H332.8L332.8,155.4z
		 M313,167.4l-7.3,4.4c-1,0.6-2,1.2-3.1,1.7l-0.6-4.1c0.5-0.3,1.1-0.6,1.6-0.9l7.1-4.3L313,167.4L313,167.4z M295.8,175.1
		c-3.6-0.1-6.6-1.9-8.9-5.1l-1.8-2.4l3.2-2.3l1.8,2.4c1.6,2.1,3.3,3.2,5.1,3.4L295.8,175.1L295.8,175.1z M280.9,161.9l-4.8-6.5h4.9
		l3.1,4.2L280.9,161.9L280.9,161.9z M361.8,155.5L304,190.7c-2.9,1.8-6.1,3.4-9.5,4.1c-6.7,1.4-12.1-1.1-16.1-6.6l-24-32.7h6.7
		l21.6,29.6c5.3,7.3,12.1,5.1,18.5,1.1l50.1-30.7H361.8L361.8,155.5z M252.8,108.8l13.8-8.8l2,3.4l-8.5,5.4H252.8L252.8,108.8z
		 M272.5,96.3l9.9-6.3l2,3.4l-9.9,6.3L272.5,96.3L272.5,96.3z M288.4,86.2l8.9-5.7l2,3.4l-8.9,5.7L288.4,86.2L288.4,86.2z
		 M303.2,76.7l6.4-4.1c1.5-1,3.1-1.8,4.7-2.4l0.1,4.2c-0.9,0.4-1.8,0.9-2.8,1.5l-6.4,4.1L303.2,76.7L303.2,76.7z M321.3,69.6
		c2.6,0.5,5,2,7.2,4.9l2.4,3.1l-3.1,2.4l-2.4-3.2c-1.2-1.6-2.5-2.6-3.9-3.1L321.3,69.6L321.3,69.6z M335.1,83.3l6.4,8.4l-3.2,2.4
		l-6.4-8.4L335.1,83.3L335.1,83.3z M345.8,97.3l7.1,9.3l-2.8,2.2h-0.6l-6.8-9.1L345.8,97.3L345.8,97.3z"/>
	<path fill-rule="evenodd" clip-rule="evenodd" fill="#92C251" d="M315.5,5.1C298,5,280.7,6.7,263.9,10.4c0.6,4.7,2.1,15.4,2.6,20.2
		l0.3,2.5l-8.1-24.4L258,6.4c23-5,38.8-6.4,62.1-6.4l0.9,46.2l-2.7,0.1L315.5,5.1L315.5,5.1z M290.2,25.4c-1.1,0.1-2.1-0.1-2.8-0.4
		l0.4-2.1c0.7,0.3,1.4,0.5,2.1,0.4c1-0.1,1.8-0.4,1.8-1.7c-0.1-1.2-1.2-1.4-2.3-1.3l-1.5,0.1l-0.3-6.2l5.6-0.3l-0.2,2.2l-3,0.2
		l0.1,2.1l0.3,0c1.9-0.1,3.8,0.8,3.9,3C294.3,23.6,292.8,25.2,290.2,25.4L290.2,25.4z M298.3,22.9c0.7,0,0.7-2,0.6-4
		c-0.1-1.9-0.3-3.5-1-3.4c-0.7,0-0.7,1.6-0.6,3.5C297.4,21,297.6,22.9,298.3,22.9L298.3,22.9z M298.4,24.9c-2.6,0.1-3.5-2.1-3.7-5.8
		c-0.2-3.5,0.7-5.6,3.1-5.7c2.4-0.1,3.5,1.9,3.7,5.3C301.7,22.5,301,24.8,298.4,24.9L298.4,24.9z M305.8,22.5c0.7,0,0.7-2,0.6-4
		c-0.1-1.9-0.3-3.5-1-3.4c-0.7,0-0.7,1.6-0.6,3.5C304.8,20.6,305,22.5,305.8,22.5L305.8,22.5z M305.9,24.5c-2.6,0.1-3.5-2.1-3.7-5.8
		c-0.2-3.5,0.7-5.6,3.1-5.7c2.4-0.1,3.5,1.9,3.7,5.3C309.1,22.1,308.5,24.4,305.9,24.5L305.9,24.5z"/>
	<path fill="#EE77A9" d="M339.8,39.9l1.9-1.1c1.4-0.8,3.2-1.8,3.6-3c0.4-1.1,0.1-1.7-0.7-2c-0.7-0.2-1.2-0.2-2.1,0.1l-0.1-1.8
		c1-0.3,2-0.4,3.2,0c1.9,0.7,3,2.1,2.3,4c-0.5,1.5-1.3,2.5-3.2,3.5l-1.9,0.9l3.2,1.1l-0.7,2l-6.1-2.1L339.8,39.9L339.8,39.9z
		 M372.8,34.9C358,28.7,343.1,24,327.6,21l0-5.2c18.8,3.8,32.4,8.3,51.4,16.1l-19.6,50.6l-2.1-2.5L372.8,34.9L372.8,34.9z
		 M349.8,43.1c0.7,0.2,1.4-1.5,2-3.3c0.6-1.8,1-3.2,0.3-3.4c-0.7-0.2-1.2,1.1-1.9,2.9C349.7,41.1,349.2,42.9,349.8,43.1L349.8,43.1z
		 M349.2,45c-2.4-0.8-2.4-3.2-1.3-6.6c1.1-3.2,2.7-4.8,4.9-4c2.2,0.8,2.5,3,1.4,6.2C353,44,351.6,45.9,349.2,45L349.2,45z
		 M356.7,45.5c0.7,0.2,1.4-1.5,2-3.3c0.6-1.8,1-3.2,0.3-3.4c-0.7-0.2-1.2,1.1-1.9,2.9C356.6,43.4,356,45.3,356.7,45.5L356.7,45.5z
		 M356.1,47.4c-2.4-0.8-2.4-3.2-1.3-6.6c1.1-3.2,2.7-4.8,4.9-4c2.2,0.8,2.5,3,1.4,6.2C359.9,46.4,358.5,48.2,356.1,47.4L356.1,47.4z
		"/>
</g>
</svg>
